<svg width="48" height="48" viewBox="0 0 48 48" fill="none" xmlns="http://www.w3.org/2000/svg">
<path d="M24 48C37.2548 48 48 37.2548 48 24C48 10.7452 37.2548 0 24 0C10.7452 0 0 10.7452 0 24C0 37.2548 10.7452 48 24 48Z" fill="black"/>
<path d="M20.1591 31H17.5641L15.0741 26.95L12.5841 31H10.1541L13.7091 25.48L10.3791 20.29H12.8841L15.1941 24.145L17.4591 20.29H19.9041L16.5441 25.6L20.1591 31ZM23.289 26.05C23.289 26.22 23.279 26.43 23.259 26.68C23.249 26.93 23.234 27.185 23.214 27.445C23.204 27.705 23.189 27.935 23.169 28.135C23.149 28.335 23.134 28.475 23.124 28.555L26.904 22.81H29.589V31H27.429V27.73C27.429 27.46 27.439 27.165 27.459 26.845C27.479 26.515 27.499 26.21 27.519 25.93C27.549 25.64 27.569 25.42 27.579 25.27L23.814 31H21.129V22.81H23.289V26.05ZM38.5049 24.49H35.8199V31H33.5849V24.49H30.8999V22.81H38.5049V24.49Z" fill="white"/>
</svg>
