<svg width="192" height="25" viewBox="0 0 192 25" fill="none" xmlns="http://www.w3.org/2000/svg">
<path d="M72 8.36997H68.9349V6.09404C68.9349 5.23934 69.4353 5.04006 69.7877 5.04006H71.9507V1.28253L68.9718 1.26941C65.665 1.26941 64.9124 4.07188 64.9124 5.86525V8.36997H63V12.2418H64.9124V23.198H68.9349V12.2418H71.6492L72 8.36997Z" fill="black"/>
<path opacity="0.9" fill-rule="evenodd" clip-rule="evenodd" d="M123.682 7.98L123.73 8.74697L122.935 8.65306C120.042 8.29305 117.515 7.07216 115.369 5.02169L114.319 4.00428L114.049 4.75559C113.477 6.43041 113.842 8.19914 115.035 9.38872C115.671 10.0461 115.527 10.14 114.431 9.74873C114.049 9.62351 113.715 9.5296 113.684 9.57655C113.572 9.68612 113.954 11.1105 114.256 11.674C114.669 12.4566 115.512 13.2236 116.434 13.6775L117.212 14.0375L116.291 14.0532C115.4 14.0532 115.369 14.0688 115.464 14.3975C115.782 15.4149 117.038 16.4949 118.437 16.9645L119.422 17.2932L118.564 17.7941C117.292 18.5141 115.798 18.9211 114.303 18.9524C113.588 18.968 113 19.0306 113 19.0776C113 19.2341 114.939 20.1107 116.068 20.455C119.454 21.4724 123.476 21.0342 126.496 19.2967C128.642 18.0602 130.788 15.6028 131.789 13.2236C132.33 11.9557 132.87 9.63916 132.87 8.52784C132.87 7.80783 132.918 7.71391 133.808 6.85302C134.333 6.35215 134.826 5.80431 134.921 5.64778C135.08 5.35039 135.064 5.35039 134.253 5.61648C132.902 6.08605 132.711 6.02344 133.379 5.31908C133.872 4.8182 134.46 3.91036 134.46 3.64427C134.46 3.59731 134.221 3.67557 133.951 3.81645C133.665 3.97297 133.029 4.20776 132.552 4.34863L131.694 4.61472L130.915 4.09819C130.486 3.81645 129.882 3.5034 129.564 3.40948C128.753 3.19035 127.513 3.22165 126.782 3.47209C124.795 4.17645 123.539 5.99214 123.682 7.98Z" fill="black"/>
<path d="M23.0582 5.86955H19.1637C18.8398 5.86955 18.5421 6.05204 18.389 6.34444C18.389 6.34444 16.8357 9.27582 16.3367 10.2632C14.9944 12.9193 14.1253 12.0854 14.1253 10.8528V6.60232C14.1253 5.86272 13.5401 5.2631 12.8184 5.2631H9.89016C9.07937 5.20135 8.2952 5.5742 7.81774 6.24858C7.81774 6.24858 9.30462 6.00218 9.30462 8.05519C9.30462 8.56431 9.3302 10.0288 9.3535 11.2571C9.36254 11.6279 9.14489 11.9651 8.8084 12.1017C8.47196 12.2383 8.08804 12.1453 7.84681 11.8688C6.64826 10.1606 5.65543 8.31029 4.88996 6.35808C4.75575 6.05989 4.46431 5.86909 4.1438 5.86955H0.605351C0.407784 5.86818 0.222145 5.96637 0.108798 6.13215C-0.00454908 6.29799 -0.0311798 6.51033 0.0376163 6.70011C1.11206 9.72024 5.74043 19.211 11.0233 19.211H13.2468C13.732 19.211 14.1253 18.808 14.1253 18.3108V16.935C14.1253 16.5822 14.3298 16.2632 14.6458 16.1231C14.9617 15.9831 15.3287 16.0488 15.5795 16.2903L18.241 18.8527C18.48 19.0829 18.7956 19.211 19.1235 19.211H22.6185C24.3041 19.211 24.3041 18.0124 23.3851 17.085C22.7383 16.4322 20.4044 13.9113 20.4044 13.9113C19.9914 13.4729 19.9521 12.7915 20.3117 12.3062C21.066 11.2889 22.2999 9.62365 22.8232 8.91026C23.5385 7.93518 24.8331 5.86955 23.0582 5.86955Z" fill="black"/>
<path fill-rule="evenodd" clip-rule="evenodd" d="M180.5 12.5868C183.694 12.5868 186.292 10.0493 186.292 6.92944C186.292 3.80794 183.695 1.26941 180.5 1.26941C177.306 1.26941 174.707 3.80822 174.707 6.92944C174.707 10.0493 177.306 12.5868 180.5 12.5868ZM180.5 4.58622C181.822 4.58622 182.898 5.63728 182.898 6.92944C182.898 8.22052 181.822 9.27158 180.5 9.27158C179.178 9.27158 178.102 8.22052 178.102 6.92944C178.102 5.63701 179.178 4.58622 180.5 4.58622ZM186.739 13.5563C187.238 14.3313 187 15.3548 186.207 15.8424C185.172 16.4779 184.035 16.9379 182.843 17.203L186.081 20.3679C186.4 20.6784 186.579 21.1002 186.579 21.54C186.579 21.9799 186.4 22.4016 186.081 22.7122C185.763 23.0232 185.331 23.198 184.882 23.198C184.432 23.198 184 23.0232 183.682 22.7122L180.499 19.6032L177.318 22.7119C176.889 23.1309 176.265 23.2946 175.679 23.1414C175.093 22.9881 174.636 22.5413 174.479 21.9691C174.322 21.3969 174.489 20.7863 174.918 20.3673L178.156 17.203C176.964 16.9376 175.827 16.4776 174.793 15.8424C174 15.3545 173.762 14.3311 174.261 13.5563C174.5 13.1837 174.881 12.9194 175.32 12.8216C175.759 12.7239 176.22 12.8007 176.601 13.0351C178.972 14.4917 182.026 14.4928 184.399 13.0351C184.78 12.8007 185.241 12.724 185.68 12.8217C186.119 12.9195 186.5 13.1838 186.739 13.5563Z" fill="black"/>
</svg>
