<svg width="11" height="17" viewBox="0 0 11 17" fill="none" xmlns="http://www.w3.org/2000/svg">
<path d="M4.16003 9.41603C4.09603 9.41603 4.06403 9.44803 4.06403 9.51203V11.528C4.06403 11.592 4.09603 11.624 4.16003 11.624H8.07203C8.23203 11.624 8.31203 11.704 8.31203 11.864V12.44C8.31203 12.6 8.23203 12.68 8.07203 12.68H4.16003C4.09603 12.68 4.06403 12.712 4.06403 12.776V16.76C4.06403 16.92 3.98403 17 3.82403 17H2.60003C2.44003 17 2.36003 16.92 2.36003 16.76V12.776C2.36003 12.712 2.32803 12.68 2.26403 12.68H0.968027C0.808027 12.68 0.728027 12.6 0.728027 12.44V11.864C0.728027 11.704 0.808027 11.624 0.968027 11.624H2.26403C2.32803 11.624 2.36003 11.592 2.36003 11.528V9.51203C2.36003 9.44803 2.32803 9.41603 2.26403 9.41603H0.968027C0.808027 9.41603 0.728027 9.33603 0.728027 9.17603V8.26403C0.728027 8.10403 0.808027 8.02403 0.968027 8.02403H2.26403C2.32803 8.02403 2.36003 7.99203 2.36003 7.92803V0.416025C2.36003 0.256025 2.44003 0.176025 2.60003 0.176025H6.56003C7.72803 0.176025 8.67203 0.608026 9.39203 1.47203C10.112 2.32003 10.472 3.44002 10.472 4.83203C10.472 6.20802 10.112 7.32003 9.39203 8.16803C8.68803 9.00003 7.76803 9.41603 6.63203 9.41603H4.16003ZM4.16003 1.66402C4.09603 1.66402 4.06403 1.69602 4.06403 1.76002V7.92803C4.06403 7.99203 4.09603 8.02403 4.16003 8.02403H6.32003C7.05603 8.02403 7.64803 7.73603 8.09603 7.16003C8.54403 6.58403 8.76803 5.81603 8.76803 4.85603C8.76803 3.89603 8.54403 3.12802 8.09603 2.55202C7.64803 1.96002 7.05603 1.66402 6.32003 1.66402H4.16003Z" fill="#E4002B"/>
</svg>
