<svg width="8" height="15" viewBox="0 0 8 15" fill="none" xmlns="http://www.w3.org/2000/svg">
<path d="M2.81773 8.23823C2.76519 8.23823 2.73892 8.26676 2.73892 8.32382V10.1213C2.73892 10.1783 2.76519 10.2068 2.81773 10.2068H6.02956C6.16092 10.2068 6.2266 10.2782 6.2266 10.4208V10.9344C6.2266 11.077 6.16092 11.1484 6.02956 11.1484H2.81773C2.76519 11.1484 2.73892 11.1769 2.73892 11.234V14.786C2.73892 14.9287 2.67324 15 2.54187 15H1.53695C1.40558 15 1.3399 14.9287 1.3399 14.786V11.234C1.3399 11.1769 1.31363 11.1484 1.26108 11.1484H0.197044C0.0656814 11.1484 0 11.077 0 10.9344V10.4208C0 10.2782 0.0656814 10.2068 0.197044 10.2068H1.26108C1.31363 10.2068 1.3399 10.1783 1.3399 10.1213V8.32382C1.3399 8.26676 1.31363 8.23823 1.26108 8.23823H0.197044C0.0656814 8.23823 0 8.16691 0 8.02425V7.21113C0 7.06847 0.0656814 6.99715 0.197044 6.99715H1.26108C1.31363 6.99715 1.3399 6.96862 1.3399 6.91155V0.21398C1.3399 0.0713266 1.40558 0 1.53695 0H4.78818C5.74713 0 6.52217 0.385165 7.1133 1.15549C7.70443 1.91156 8 2.91013 8 4.15121C8 5.37803 7.70443 6.36947 7.1133 7.12553C6.5353 7.86733 5.77997 8.23823 4.84729 8.23823H2.81773ZM2.81773 1.32668C2.76519 1.32668 2.73892 1.35521 2.73892 1.41227V6.91155C2.73892 6.96862 2.76519 6.99715 2.81773 6.99715H4.59113C5.1954 6.99715 5.68145 6.74037 6.04926 6.22682C6.41708 5.71327 6.60098 5.02853 6.60098 4.17261C6.60098 3.31669 6.41708 2.63195 6.04926 2.1184C5.68145 1.59058 5.1954 1.32668 4.59113 1.32668H2.81773Z" fill="white"/>
</svg>
